<svg width="512" height="82" viewBox="0 0 512 82" fill="none" xmlns="http://www.w3.org/2000/svg">
<g clip-path="url(#clip0_1_65)">
<path d="M40.3333 46.9891V54.2359C40.3333 57.8146 37.4256 60.7223 33.8469 60.7223H27.8526C26.1304 60.7223 24.4753 61.4156 23.2451 62.6234L21.9926 63.8983C20.7848 65.1062 20.0914 66.7613 20.0914 68.4835V74.4555C20.0914 78.0341 17.1837 80.9418 13.605 80.9418H6.38058C2.8019 80.9418 -0.105774 78.0341 -0.105774 74.4555V67.231C-0.105774 63.6523 2.8019 60.7446 6.38058 60.7446H12.3525C14.0747 60.7446 15.7299 60.0736 16.9377 58.8435L18.2126 57.5909C19.4428 56.3831 20.1138 54.728 20.1138 52.9834V46.9891C20.1138 43.4104 23.0214 40.5027 26.6001 40.5027H33.8469C37.4256 40.5027 40.3333 43.4104 40.3333 46.9891Z" fill="#28E7C5"/>
<path d="M60.1726 6.52769V13.7745C60.1726 17.3532 57.2649 20.2609 53.6863 20.2609H26.6001C24.8779 20.2609 23.2228 20.9542 22.015 22.162C20.8072 23.3698 20.1138 25.025 20.1138 26.7472V33.9717C20.1138 37.5504 17.2061 40.458 13.6274 40.458H6.40298C2.82431 40.458 -0.083374 37.5504 -0.083374 33.9717V26.7472C-0.083374 23.1685 2.82431 20.2609 6.40298 20.2609H13.6274C15.3497 20.2609 17.0048 19.5675 18.2126 18.3597L18.235 18.3373C19.4428 17.1295 20.1362 15.4744 20.1362 13.7521V6.52769C20.1362 2.94901 23.0438 0.0413284 26.6225 0.0413284H53.7086C57.265 0.0413284 60.1726 2.94901 60.1726 6.52769Z" fill="#28E7C5"/>
<path d="M116.847 35.6576H99.4773V48.7655H116.059V58.0345H99.4773V79.9735H89.566V26.3886H116.847V35.6576Z" fill="#081428"/>
<path d="M130.452 35.2197H120.818V26.3886H130.452V35.2197ZM130.452 79.9589H120.818V39.7885H130.452V79.9589Z" fill="#081428"/>
<path d="M171.06 79.9589H161.426V60.1218C161.426 51.5389 158.726 47.2328 153.325 47.2328C150.581 47.2328 148.377 48.4152 146.742 50.7799C145.589 52.4731 145.005 55.8304 145.005 60.8371V79.9443H135.371V39.7739H144.275V43.2479C147.603 40.022 151.267 38.4018 155.281 38.4018C157.5 38.4018 159.718 38.9127 161.937 39.9198C164.156 40.927 165.966 42.2845 167.367 43.9777C169.834 46.9701 171.06 51.5243 171.06 57.655V79.9443V79.9589Z" fill="#081428"/>
<path d="M216.515 59.7569C216.515 65.8438 214.486 70.9381 210.428 75.069C206.37 79.1999 201.305 81.258 195.232 81.258C189.16 81.258 184.299 79.1561 180.11 74.9668C175.906 70.7629 173.819 65.7562 173.819 59.9175C173.819 54.0787 175.906 48.9115 180.081 44.7222C184.256 40.5183 189.306 38.431 195.247 38.431C201.188 38.431 206.209 40.5037 210.34 44.6492C214.471 48.7947 216.529 53.8452 216.529 59.7715L216.515 59.7569ZM206.881 59.9759C206.881 56.6478 205.757 53.6846 203.509 51.1156C201.261 48.5466 198.502 47.2474 195.218 47.2474C191.934 47.2474 189.087 48.532 186.825 51.0864C184.562 53.6408 183.424 56.5894 183.424 59.9175C183.424 63.2456 184.533 66.2817 186.752 68.7486C188.97 71.2154 191.788 72.4415 195.218 72.4415C198.648 72.4415 201.319 71.2154 203.538 68.7486C205.757 66.2817 206.866 63.3623 206.866 59.9905L206.881 59.9759Z" fill="#081428"/>
<path d="M255.678 39.7885L239.388 79.9589H231.856L215.639 39.7885H226.061L235.768 66.4277H235.987L245.11 39.7885H255.678Z" fill="#081428"/>
<path d="M297.585 59.7569C297.585 65.8438 295.556 70.9381 291.498 75.069C287.441 79.1999 282.375 81.258 276.303 81.258C270.231 81.258 265.37 79.1561 261.181 74.9668C256.992 70.7775 254.89 65.7562 254.89 59.9175C254.89 54.0787 256.977 48.9115 261.152 44.7222C265.326 40.5183 270.377 38.431 276.318 38.431C282.259 38.431 287.28 40.5037 291.411 44.6492C295.542 48.7947 297.6 53.8452 297.6 59.7715L297.585 59.7569ZM287.951 59.9759C287.951 56.6478 286.828 53.6846 284.58 51.1156C282.332 48.5466 279.573 47.2474 276.289 47.2474C273.004 47.2474 270.158 48.532 267.895 51.0864C265.633 53.6408 264.494 56.5894 264.494 59.9175C264.494 63.2456 265.604 66.2817 267.822 68.7486C270.041 71.2154 272.858 72.4415 276.289 72.4415C279.719 72.4415 282.39 71.2154 284.609 68.7486C286.827 66.2817 287.937 63.3623 287.937 59.9905L287.951 59.9759Z" fill="#081428"/>
<path d="M317.101 80.9661V24.7975H334.107C349.594 24.7975 354.221 33.9789 354.221 41.7298C354.221 49.4808 349.36 58.3556 334.034 58.3556H322.721V80.9807H317.101V80.9661ZM335.245 53.2613C343.069 53.2613 348.601 48.5612 348.601 41.5693C348.601 35.9495 345.04 29.8772 334.034 29.8772H322.721V53.2613H335.245Z" fill="#6942E2"/>
<path d="M361.271 80.9661V39.4381H366.585V45.4374H366.731C368.555 41.1168 371.737 38.7521 378.423 38.3726V43.9924H378.35C370.686 44.7514 366.585 49.7581 366.585 56.4434V80.9661H361.271Z" fill="#6942E2"/>
<path d="M384.115 34.3584V24.7975H389.429V34.3584H384.115ZM384.115 80.9661V39.4381H389.429V80.9661H384.115Z" fill="#6942E2"/>
<path d="M455.246 80.9661V56.604C455.246 48.7071 451.45 43.1749 443.933 43.1749C436.416 43.1749 432.621 48.6341 432.621 56.7646V80.9807H427.307V56.6916C427.307 48.5758 423.352 43.1749 415.995 43.1749C408.638 43.1749 404.682 48.5612 404.682 56.6916V80.9807H399.369V39.4527H404.682V44.2405C407.193 40.2994 411.441 38.4018 415.995 38.4018C421.994 38.4018 427.001 41.2044 429.964 46.3716C433.234 41.2919 437.861 38.4018 443.933 38.4018C454.633 38.4018 460.559 46.2986 460.559 56.0931V80.9953H455.246V80.9661Z" fill="#6942E2"/>
<path d="M473.915 62.1508C474.367 70.4272 481.958 77.1855 490.015 77.1855C496.467 77.1855 502.612 73.4633 504.889 67.391H510.509C507.327 76.3535 498.978 81.9587 490.088 81.9587C478.323 81.9587 468.456 72.3978 468.456 60.2532C468.456 48.1086 478.396 38.3872 490.015 38.3872C502.466 38.3872 511.794 49.0866 511.794 60.5451C511.794 61.0706 511.721 61.6107 511.721 62.1362H473.915V62.1508ZM506.335 57.363C504.816 49.0137 498.219 43.1749 490.015 43.1749C482.279 43.1749 475.36 48.7947 473.915 57.363H506.335Z" fill="#6942E2"/>
</g>
<defs>
<clipPath id="clip0_1_65">
<rect width="511.794" height="81.9174" fill="white" transform="translate(0 0.0413246)"/>
</clipPath>
</defs>
</svg>
